<svg width="107" height="24" viewBox="0 0 107 24" fill="none" xmlns="http://www.w3.org/2000/svg">
<path d="M0 23.6024V0.397949H5.56906V9.77917H9.41437C10.0553 9.77917 10.6409 9.64657 11.1713 9.38138C11.7238 9.11618 12.1547 8.71839 12.4641 8.18801C12.7735 7.65762 12.9282 7.03883 12.9282 6.33165V0.397949H18.4972V6.3648C18.4972 7.84546 18.1436 9.17143 17.4365 10.3427C16.7293 11.514 15.8011 12.4532 14.6519 13.1604L17.1713 18.4643C17.2376 18.641 17.3481 18.7736 17.5028 18.862C17.6796 18.9504 17.8674 18.9946 18.0663 18.9946H20.1547V23.6024H16.9392C15.7238 23.6024 14.7403 23.3703 13.989 22.9062C13.2376 22.4422 12.663 21.8013 12.2652 20.9836L9.11602 14.42C8.93923 14.42 8.77348 14.42 8.61879 14.42C8.46409 14.42 8.29834 14.42 8.12155 14.42H5.56906V23.6024H0Z" fill="#1A63FF"/>
<path d="M28.7213 23.6024V17.2709C27.3069 16.9394 26.0693 16.3648 25.0086 15.5471C23.9699 14.7073 23.1633 13.6576 22.5887 12.398C22.0141 11.1162 21.7268 9.64657 21.7268 7.98911V0.397949H27.1633V8.28745C27.1633 9.12723 27.3401 9.90071 27.6937 10.6079C28.0472 11.293 28.5445 11.8455 29.1854 12.2654C29.8484 12.6631 30.6218 12.862 31.5058 12.862C32.3898 12.862 33.1522 12.6631 33.7931 12.2654C34.4561 11.8455 34.9644 11.293 35.318 10.6079C35.6716 9.90071 35.8484 9.12723 35.8484 8.28745V0.397949H41.2848V7.98911C41.2848 9.64657 40.9975 11.1162 40.4229 12.398C39.8484 13.6576 39.0307 14.7073 37.9699 15.5471C36.9091 16.3869 35.6716 16.9615 34.2572 17.2709V23.6024H28.7213Z" fill="#1A63FF"/>
<path d="M51.6707 23.6022C50.2342 23.6022 48.9745 23.2818 47.8917 22.6409C46.8088 22 45.969 21.1492 45.3723 20.0884C44.7756 19.0276 44.4773 17.8564 44.4773 16.5746V0.397789H50.0464V16.9724C50.0464 17.5028 50.2342 17.9669 50.6099 18.3646C50.9856 18.7624 51.4497 18.9613 52.0022 18.9613H58.1348V23.6022H51.6707Z" fill="#1A63FF"/>
<path d="M54.9579 23.6022L62.4827 3.08287C62.8584 2.0663 63.4772 1.30387 64.3391 0.795579C65.201 0.265193 66.1733 0 67.2562 0C68.3391 0 69.3115 0.254143 70.1733 0.762431C71.0352 1.24862 71.654 2.01105 72.0297 3.04972L79.5877 23.6022H73.5877L72.1291 19.1271H62.2838L60.759 23.6022H54.9579ZM63.7093 14.5193H70.7037L67.7535 5.27072C67.7093 5.13812 67.643 5.04972 67.5546 5.00552C67.4883 4.93923 67.3999 4.90608 67.2894 4.90608C67.1789 4.90608 67.0794 4.93923 66.991 5.00552C66.9247 5.07182 66.8805 5.16022 66.8584 5.27072L63.7093 14.5193Z" fill="#1A63FF"/>
<path d="M99.3558 24C97.9636 24 96.715 23.7017 95.61 23.105C94.505 22.4862 93.6321 21.6354 92.9912 20.5525C92.3503 19.4696 92.0299 18.2431 92.0299 16.8729V6.72928C92.0299 6.37569 91.9415 6.05525 91.7647 5.76796C91.5879 5.48066 91.3558 5.24862 91.0685 5.07182C90.7813 4.89503 90.4608 4.80663 90.1072 4.80663C89.7536 4.80663 89.4332 4.89503 89.1459 5.07182C88.8586 5.24862 88.6266 5.48066 88.4498 5.76796C88.2951 6.05525 88.2177 6.37569 88.2177 6.72928V23.6022H82.7812V7.12707C82.7812 5.73481 83.0906 4.50829 83.7094 3.44751C84.3503 2.38674 85.2232 1.54696 86.3282 0.928177C87.4553 0.309392 88.715 0 90.1072 0C91.5216 0 92.7813 0.309392 93.8862 0.928177C94.9912 1.54696 95.8641 2.38674 96.505 3.44751C97.1459 4.50829 97.4663 5.73481 97.4663 7.12707V17.2707C97.4663 17.6243 97.5547 17.9558 97.7315 18.2652C97.9083 18.5525 98.1293 18.7845 98.3945 18.9613C98.6818 19.116 98.9912 19.1934 99.3227 19.1934C99.6763 19.1934 99.9967 19.116 100.284 18.9613C100.593 18.7845 100.837 18.5525 101.013 18.2652C101.19 17.9558 101.278 17.6243 101.278 17.2707V0.397789H106.682V16.8729C106.682 18.2431 106.361 19.4696 105.72 20.5525C105.08 21.6354 104.207 22.4862 103.102 23.105C101.997 23.7017 100.748 24 99.3558 24Z" fill="#1A63FF"/>
</svg>
