<svg width="96" height="96" viewBox="0 0 96 96" fill="none" xmlns="http://www.w3.org/2000/svg">
<path d="M0 24C0 10.7452 10.7452 0 24 0H72C85.2548 0 96 10.7452 96 24V72C96 85.2548 85.2548 96 72 96H24C10.7452 96 0 85.2548 0 72V24Z" fill="url(#paint0_linear_2276_5857)"/>
<rect x="15" y="27" width="30" height="30" rx="8" fill="white"/>
<rect opacity="0.5" x="51" y="39" width="30" height="30" rx="8" fill="white"/>
<path opacity="0.5" d="M15 18H69C72.3137 18 75 20.6863 75 24V30" stroke="white" stroke-width="3" stroke-linecap="round"/>
<path d="M78.4501 26.4503C78.7339 26.1581 79.1139 25.9964 79.5085 26.0001C79.903 26.0037 80.2803 26.1724 80.5593 26.4698C80.8383 26.7672 80.9965 27.1695 80.9999 27.5901C81.0034 28.0106 80.8517 28.4158 80.5776 28.7183L76.0638 33.5304C75.7816 33.8311 75.399 34 75 34C74.601 34 74.2184 33.8311 73.9362 33.5304L69.4224 28.7183C69.1483 28.4158 68.9966 28.0106 69.0001 27.5901C69.0035 27.1695 69.1617 26.7672 69.4407 26.4698C69.7197 26.1724 70.097 26.0037 70.4915 26.0001C70.8861 25.9964 71.2661 26.1581 71.5499 26.4503L75 30.1283L78.4501 26.4503Z" fill="white"/>
<path opacity="0.5" d="M21 66V72C21 75.3137 23.6863 78 27 78H81" stroke="white" stroke-width="3" stroke-linecap="round"/>
<path d="M17.5499 69.5497C17.2661 69.8419 16.8861 70.0036 16.4915 69.9999C16.097 69.9963 15.7197 69.8276 15.4407 69.5302C15.1617 69.2328 15.0035 68.8305 15.0001 68.4099C14.9966 67.9894 15.1483 67.5842 15.4224 67.2817L19.9362 62.4696C20.2184 62.1689 20.601 62 21 62C21.399 62 21.7816 62.1689 22.0638 62.4696L26.5776 67.2817C26.8517 67.5842 27.0034 67.9894 26.9999 68.4099C26.9965 68.8305 26.8383 69.2328 26.5593 69.5302C26.2803 69.8276 25.903 69.9963 25.5085 69.9999C25.1139 70.0036 24.7339 69.8419 24.4501 69.5497L21 65.8717L17.5499 69.5497Z" fill="white"/>
<defs>
<linearGradient id="paint0_linear_2276_5857" x1="0" y1="0" x2="96" y2="96" gradientUnits="userSpaceOnUse">
<stop stop-color="#5D6CCF"/>
<stop offset="1" stop-color="#828DD9"/>
</linearGradient>
</defs>
</svg>
